<svg id="Layer_1" data-name="Layer 1" xmlns="http://www.w3.org/2000/svg" xmlns:xlink="http://www.w3.org/1999/xlink" viewBox="0 0 595.28 841.89"><defs><style>.cls-1{fill:url(#linear-gradient);}.cls-2{fill:url(#linear-gradient-2);}.cls-3{fill:url(#linear-gradient-3);}.cls-4{fill:url(#linear-gradient-4);}.cls-5{fill:url(#linear-gradient-5);}.cls-16,.cls-17,.cls-6{fill:#101d42;}.cls-7{fill:url(#linear-gradient-6);}.cls-8{fill:url(#linear-gradient-7);}.cls-9{fill:url(#linear-gradient-8);}.cls-10{fill:url(#linear-gradient-9);}.cls-11,.cls-14{font-size:25.86px;font-family:MicrosoftYaHeiUI, Microsoft YaHei UI;}.cls-11{fill:#00aeef;}.cls-12,.cls-16{letter-spacing:0em;}.cls-13,.cls-17{letter-spacing:0em;}.cls-14{fill:#127dc2;}.cls-15{fill:#000;}</style><linearGradient id="linear-gradient" x1="239.52" y1="328.61" x2="269.67" y2="340.34" gradientTransform="translate(-57.57 50.38)" gradientUnits="userSpaceOnUse"><stop offset="0" stop-color="#49c7ef"/><stop offset="1" stop-color="#127dc2"/></linearGradient><linearGradient id="linear-gradient-2" x1="127" y1="298.51" x2="159.58" y2="311.19" gradientTransform="translate(21.07 -10.48) rotate(4.14)" xlink:href="#linear-gradient"/><linearGradient id="linear-gradient-3" x1="164.55" y1="312.65" x2="194.69" y2="324.38" gradientTransform="translate(-6.4 1.11)" xlink:href="#linear-gradient"/><linearGradient id="linear-gradient-4" x1="203.37" y1="323.62" x2="233.52" y2="335.35" gradientTransform="translate(-24.98 20.94)" xlink:href="#linear-gradient"/><linearGradient id="linear-gradient-5" x1="143.83" y1="381.96" x2="261.7" y2="381.96" gradientTransform="matrix(-1, 0, 0, 1, 346.08, 0)" xlink:href="#linear-gradient"/><linearGradient id="linear-gradient-6" x1="103.35" y1="503.64" x2="143.38" y2="503.64" gradientTransform="matrix(1, 0, 0, 1, 0, 0)" xlink:href="#linear-gradient"/><linearGradient id="linear-gradient-7" x1="50.76" y1="381.96" x2="177.55" y2="381.96" gradientTransform="matrix(1, 0, 0, 1, 0, 0)" xlink:href="#linear-gradient"/><linearGradient id="linear-gradient-8" x1="80.73" y1="470.42" x2="163.75" y2="470.42" gradientTransform="matrix(1, 0, 0, 1, 0, 0)" xlink:href="#linear-gradient"/><linearGradient id="linear-gradient-9" x1="81.05" y1="483.74" x2="164.07" y2="483.74" gradientTransform="matrix(1, 0, 0, 1, 0, 0)" xlink:href="#linear-gradient"/></defs><rect class="cls-1" x="191.36" y="378.66" width="19.39" height="15.53" transform="translate(594.66 199.82) rotate(92.12)"/><polygon class="cls-2" points="155.54 298.48 136.2 297.08 135.08 312.57 154.57 318.08 155.54 298.48"/><rect class="cls-3" x="167.55" y="313.42" width="19.39" height="15.53" transform="translate(245.2 -39.31) rotate(39.57)"/><rect class="cls-4" x="187.8" y="344.23" width="19.39" height="15.53" transform="translate(455.95 41.98) rotate(69.11)"/><path class="cls-5" d="M202.06,370.25A72,72,0,0,0,135.65,304l-.7,9.92a61.85,61.85,0,0,1,34.34,109.83A38.9,38.9,0,0,0,155.14,450H105.76c0,.09,0,.13,0,0h0a1.06,1.06,0,0,1,0-.15v0c-3.35.68-6.25.35-10,.68.07.83.35,3.1.35,3.94V460h57.48a3.4,3.4,0,0,1,.22-1.34,12,12,0,0,1,4.83-5.73c2.62-2.81,5.06-5.77,7.86-8.39l.06-.05a28.54,28.54,0,0,1,9-13A72,72,0,0,0,202.06,370.25Z"/><rect class="cls-6" x="113.92" y="356.67" width="32.1" height="20.63"/><path class="cls-6" d="M113.66,381v82.64a72.14,72.14,0,0,0,32.63.56V381Z"/><polygon class="cls-6" points="128.51 441.37 195.68 375.53 234.97 421.74 295.07 368.12 289.29 361.31 319.93 354.85 315.16 385.49 306.31 379.36 231.73 455.43 197.49 414.34 151.1 465.84 128.51 441.37"/><path class="cls-7" d="M143.38,493.45l-4.68,10.68a16.21,16.21,0,0,1-14.85,9.71h0a16.2,16.2,0,0,1-14.34-8.67l-6.16-11.72"/><path class="cls-8" d="M147.26,450H97.88a38.87,38.87,0,0,0-14.16-26.31,61.85,61.85,0,0,1,34.34-109.83l-.7-9.92A71.8,71.8,0,0,0,77.47,431.45a29.31,29.31,0,0,1,10.69,23V460H157l3.91-5c.46-.78,4.08-4.21,4.51-4.94"/><path class="cls-9" d="M149.14,485H95.34a14.61,14.61,0,1,1,0-29.21h53.8a14.61,14.61,0,1,1,0,29.21Zm-53.8-19.26a4.66,4.66,0,0,0,0,9.31h53.8a4.66,4.66,0,0,0,0-9.31Z"/><path class="cls-10" d="M149.46,498.35H95.66a14.61,14.61,0,1,1,0-29.21h53.8a14.61,14.61,0,1,1,0,29.21Zm-53.8-19.26a4.66,4.66,0,0,0,0,9.31h53.8a4.66,4.66,0,0,0,0-9.31Z"/><text class="cls-11" transform="translate(166.25 491.6)">Insight lea<tspan class="cls-12" x="127.99" y="0">r</tspan><tspan class="cls-13" x="137.81" y="0">n</tspan></text><text class="cls-14" transform="translate(166.25 491.6)">Insight<tspan class="cls-15" x="84.49" y="0"> </tspan><tspan class="cls-6" x="92.14" y="0">lea</tspan><tspan class="cls-16" x="127.99" y="0">r</tspan><tspan class="cls-17" x="137.81" y="0">n</tspan></text></svg>